<?xml version="1.0" encoding="utf-8"?>
<!-- Generator: Adobe Illustrator 17.0.0, SVG Export Plug-In . SVG Version: 6.00 Build 0)  -->
<!DOCTYPE svg PUBLIC "-//W3C//DTD SVG 1.1//EN" "http://www.w3.org/Graphics/SVG/1.1/DTD/svg11.dtd">
<svg version="1.1" id="Layer_1" xmlns="http://www.w3.org/2000/svg" xmlns:xlink="http://www.w3.org/1999/xlink" x="0px" y="0px"
	 width="129.5px" height="70px" viewBox="0 0 129.5 70" enable-background="new 0 0 129.5 70" xml:space="preserve">
<path d="M91.046,45.719c-0.433,0-0.8,0.066-1.101,0.198c-0.301,0.132-0.565,0.315-0.79,0.55c-0.226,0.235-0.428,0.513-0.607,0.833
	c-0.179,0.32-0.362,0.668-0.55,1.045l-3.133,6.577c-0.689,1.468-0.939,2.025-1.496,3.19L80.73,63.63
	c-0.32,0.696-0.734,1.289-1.242,1.778c-0.508,0.489-1.138,0.734-1.891,0.734c-0.433,0-0.828-0.155-1.186-0.466
	c-0.358-0.31-0.536-0.72-0.536-1.228c0-0.357,0.108-0.677,0.324-0.959c0.216-0.282,0.494-0.424,0.833-0.424
	c0.301,0,0.56,0.122,0.776,0.367c0.217,0.245,0.325,0.536,0.325,0.875c0,0.207-0.038,0.4-0.113,0.579
	c-0.075,0.179-0.188,0.325-0.338,0.438c0.583-0.038,1.063-0.259,1.439-0.663c0.376-0.405,0.696-0.87,0.959-1.397l3.119-6.507
	l-4.855-10.247c-0.169-0.376-0.4-0.602-0.691-0.677c-0.292-0.075-0.598-0.113-0.918-0.113h-0.254V44.9h6.634v0.819h-0.593
	c-0.32,0-0.631,0.047-0.932,0.141c-0.301,0.094-0.452,0.358-0.452,0.79c0,0.151,0.024,0.292,0.071,0.423
	c0.047,0.132,0.099,0.264,0.155,0.395l3.105,6.605l2.964-6.295c0.132-0.207,0.198-0.452,0.198-0.734c0-0.395-0.122-0.715-0.367-0.96
	c-0.245-0.245-0.546-0.367-0.903-0.367h-0.678V44.9h5.364V45.719z M75.195,52.039c-0.004,1.159,0.02,2.435-0.449,3.451
	c-0.259,0.561-0.669,1.044-1.318,1.379c-0.366,0.189-0.753,0.282-1.167,0.282c-0.414,0-0.795-0.089-1.153-0.268
	c-0.353-0.179-0.668-0.414-0.941-0.706c-0.273-0.292-0.48-0.64-0.63-1.044c-0.151-0.405-0.226-0.833-0.226-1.285v-8.101h-2.089
	v-0.819h2.089v-1.242c0-0.263-0.07-0.508-0.211-0.734c-0.141-0.226-0.325-0.395-0.551-0.508l0.198-0.79
	c1.042,0.112,2.858,0.227,4.463-0.288l0.189,0.573c-1.443,0.543-1.97,0.662-1.97,1.422v1.568h3.67v0.793
	c-1.526,0-2.306-0.007-3.67,0.026v8.158c0,0.225,0.028,0.456,0.085,0.691c0.056,0.235,0.141,0.452,0.254,0.649
	c0.113,0.197,0.259,0.358,0.438,0.48c0.179,0.122,0.381,0.184,0.607,0.184c0.264,0,0.503-0.066,0.72-0.198
	c0.216-0.132,0.395-0.301,0.537-0.508c0.56-0.822,0.46-2.237,0.487-3.164H75.195z M63.129,57.151v-1.976
	c-0.395,0.583-0.941,1.059-1.637,1.425c-0.696,0.367-1.374,0.551-2.032,0.551c-0.734,0-1.435-0.109-2.103-0.325
	c-0.668-0.216-1.256-0.546-1.764-0.988c-0.508-0.442-0.913-0.988-1.214-1.637c-0.653-1.409-0.602-3.45,0.113-4.827
	c0.376-0.725,0.791-1.369,1.242-1.934c0.452-0.565,0.865-1.092,1.242-1.581c0.377-0.489,0.565-1.025,0.565-1.609
	c0-0.339-0.052-0.677-0.155-1.016c-0.104-0.339-0.297-0.593-0.579-0.762c0.075,0.151,0.113,0.33,0.113,0.537
	c0,0.301-0.103,0.555-0.31,0.762c-0.207,0.207-0.442,0.311-0.706,0.311c-0.282,0-0.527-0.108-0.734-0.325
	c-0.207-0.216-0.31-0.485-0.31-0.804c0-0.433,0.151-0.776,0.452-1.031c0.301-0.254,0.631-0.381,0.988-0.381
	c0.339,0,0.631,0.08,0.87,0.24c0.24,0.16,0.438,0.367,0.593,0.621c0.155,0.254,0.278,0.541,0.362,0.861
	c0.08,0.32,0.122,0.649,0.122,0.988c0,0.583-0.103,1.129-0.315,1.637c-0.212,0.508-0.437,1.04-0.687,1.595
	c-0.244,0.555-0.47,1.157-0.673,1.807c-0.382,1.226-0.39,2.674-0.104,3.923c0.132,0.574,0.339,1.082,0.617,1.525
	c0.282,0.442,0.64,0.8,1.068,1.072c0.433,0.273,0.96,0.409,1.576,0.409c0.654,0,1.266-0.188,1.825-0.565
	c0.565-0.376,1.007-0.894,1.322-1.552c0.038-0.038,0.09-0.146,0.155-0.325c0.066-0.179,0.099-0.287,0.099-0.325v-6.351
	c0-0.377-0.118-0.696-0.353-0.96c-0.235-0.263-0.522-0.395-0.861-0.395h-1.157v-0.819h4.488v10.049c0,0.376,0.118,0.696,0.353,0.96
	c0.235,0.263,0.513,0.395,0.833,0.395h1.101v0.819H63.129z M49.284,49.784c-0.621,0.32-1.266,0.514-1.933,0.578
	c-0.667,0.065-1.332,0.171-1.99,0.297c-0.318,0.06-0.65,0.165-0.988,0.324c-0.338,0.159-0.65,0.358-0.931,0.593
	c-0.281,0.234-0.513,0.522-0.692,0.861c-0.378,0.716-0.343,1.463-0.028,2.188c0.159,0.366,0.382,0.664,0.663,0.889
	c0.281,0.225,0.613,0.396,0.988,0.508c0.376,0.112,0.772,0.169,1.186,0.169c0.659,0,1.323-0.137,1.99-0.409
	c0.667-0.272,1.247-0.654,1.736-1.143V49.784z M49.284,57.151v-1.524c-0.659,0.527-1.403,0.914-2.23,1.157
	c-0.827,0.244-1.647,0.367-2.456,0.367c-0.489,0-1.003-0.062-1.538-0.183c-0.536-0.122-1.026-0.321-1.468-0.593
	c-0.441-0.272-0.81-0.635-1.101-1.087c-0.648-1.003-0.588-2.449,0.127-3.415c0.376-0.507,0.848-0.909,1.412-1.2
	c0.564-0.291,1.181-0.503,1.849-0.635c0.668-0.132,1.284-0.246,1.849-0.31c0.243-0.028,0.532-0.047,0.861-0.085
	c0.329-0.038,0.66-0.09,0.988-0.155c0.329-0.065,0.646-0.152,0.946-0.254c0.3-0.102,0.555-0.231,0.762-0.381
	c0-0.658-0.09-1.214-0.268-1.666c-0.178-0.45-0.429-0.819-0.748-1.101c-0.319-0.281-0.707-0.486-1.157-0.607
	c-0.451-0.121-0.951-0.183-1.496-0.183c-0.47,0-0.951,0.053-1.44,0.155c-0.488,0.103-0.95,0.268-1.383,0.494
	c0.283,0.132,0.519,0.34,0.706,0.621c0.187,0.282,0.283,0.603,0.283,0.96c0,0.433-0.142,0.81-0.424,1.129
	c-0.281,0.319-0.621,0.48-1.016,0.48c-0.395,0-0.744-0.156-1.044-0.466c-0.3-0.31-0.452-0.692-0.452-1.143
	c0-0.602,0.175-1.097,0.522-1.482c0.347-0.385,0.777-0.693,1.284-0.918c0.507-0.225,1.04-0.381,1.595-0.466
	c0.555-0.085,1.04-0.127,1.454-0.127c1.28,0,2.48,0.217,3.599,0.649c1.12,0.433,2.103,1.195,2.95,2.286
	c-0.32,0.169-0.541,0.395-0.663,0.678c-0.122,0.282-0.183,0.613-0.183,0.988v5.843c0,0.374,0.119,0.697,0.353,0.96
	c0.234,0.262,0.522,0.395,0.861,0.395h1.044v0.705L49.284,57.151z M36.384,56.022c-0.959,0.752-2.051,1.129-3.274,1.129
	c-2.107,0-3.902-1.071-4.941-2.7c-0.61-0.956-0.959-2.104-0.959-3.341c0-0.96,0.152-1.845,0.452-2.653
	c0.3-0.808,0.716-1.506,1.242-2.089c0.526-0.582,1.158-1.04,1.891-1.369c0.733-0.329,1.534-0.494,2.399-0.494
	c0.696,0,1.36,0.136,1.99,0.409c0.63,0.273,1.177,0.65,1.637,1.129c0.46,0.479,0.829,1.054,1.101,1.722
	c0.272,0.667,0.409,1.399,0.409,2.187v0.424c-0.263,0-0.517-0.005-0.762-0.014c-0.244-0.009-0.499-0.014-0.762-0.014
	c-0.395,0-0.815,0.015-1.256,0.042c-0.441,0.027-0.885,0.09-1.327,0.183c-0.441,0.093-0.871,0.231-1.284,0.409
	c-0.413,0.178-0.772,0.419-1.072,0.72c0.244,0.056,0.452,0.189,0.621,0.395c0.168,0.206,0.254,0.451,0.254,0.734
	c0,0.282-0.095,0.523-0.283,0.72c-0.187,0.196-0.414,0.296-0.677,0.296c-0.32,0-0.58-0.132-0.776-0.395
	c-0.197-0.262-0.296-0.555-0.296-0.875c0-0.527,0.17-0.966,0.508-1.312c0.338-0.347,0.697-0.627,1.072-0.833
	c0.376-0.206,0.767-0.381,1.172-0.522c0.405-0.141,0.808-0.291,1.2-0.466c0.322-0.144,0.622-0.359,0.903-0.621
	c0.281-0.262,0.423-0.611,0.423-1.044c0-0.395-0.089-0.744-0.268-1.045c-0.179-0.301-0.401-0.56-0.663-0.776
	c-0.263-0.216-0.566-0.377-0.903-0.48c-0.338-0.102-0.659-0.155-0.96-0.155c-0.696,0-1.289,0.17-1.778,0.508
	c-0.489,0.339-0.89,0.777-1.2,1.312c-0.31,0.536-0.538,1.139-0.678,1.807c-0.14,0.667-0.212,1.332-0.212,1.99
	c0,1.575,0.615,3.564,2.188,4.601c0.511,0.337,1.096,0.536,1.792,0.536c1.129,0,2.052-0.278,2.766-0.832
	c1.276-0.99,1.736-2.229,2.09-3.715h0.81C38.451,53.414,38.032,54.73,36.384,56.022z M22.975,52.127c0-0.658-0.151-1.242-0.452-1.75
	c-0.301-0.508-0.687-0.931-1.157-1.27c-0.47-0.339-0.989-0.599-1.553-0.776c-0.563-0.178-1.11-0.268-1.637-0.268
	c-0.859,0-2.029,0.299-2.743,0.799c0.32,0.019,0.593,0.151,0.818,0.395c0.226,0.244,0.339,0.546,0.339,0.903
	c0,0.358-0.118,0.663-0.353,0.917c-0.235,0.254-0.513,0.381-0.833,0.381c-0.358,0-0.651-0.152-0.875-0.452
	c-0.224-0.3-0.338-0.64-0.338-1.016c0-0.47,0.091-0.858,0.268-1.157c0.177-0.3,0.411-0.543,0.691-0.72
	c0.669-0.422,1.853-0.762,2.63-0.982c0.657-0.187,1.285-0.438,1.877-0.748c0.592-0.309,1.102-0.692,1.524-1.143
	c0.422-0.451,0.635-1.016,0.635-1.693c0-0.64-0.151-1.186-0.452-1.637c-0.301-0.451-0.678-0.82-1.129-1.101
	c-0.451-0.281-0.95-0.489-1.496-0.621c-0.546-0.132-1.057-0.198-1.525-0.198h-2.658c-0.43,0-0.797,0.166-1.087,0.494
	c-0.29,0.327-0.438,0.723-0.438,1.171v12.985c0,0.468,0.147,0.872,0.438,1.2c0.29,0.328,0.654,0.494,1.087,0.494h3.505
	c0.508,0,1.054-0.099,1.638-0.296c0.583-0.197,1.115-0.48,1.595-0.847c0.48-0.367,0.881-0.81,1.2-1.327
	C22.815,53.347,22.975,52.767,22.975,52.127z M25.714,52.127c0,0.791-0.194,1.483-0.579,2.075c-0.385,0.592-0.853,1.097-1.397,1.51
	c-0.865,0.657-1.774,1.063-2.724,1.214c-0.951,0.151-1.937,0.226-2.95,0.226H7.437v-0.819h1.73c0.414,0,0.771-0.164,1.072-0.494
	c0.301-0.329,0.451-0.729,0.451-1.2V41.654c0-0.451-0.152-0.844-0.451-1.171c-0.299-0.328-0.662-0.494-1.072-0.494h-1.73V39.17
	h10.74c0.64,0,1.327,0.052,2.061,0.155c0.734,0.103,1.417,0.312,2.046,0.621c0.63,0.31,1.154,0.749,1.567,1.312
	c0.413,0.564,0.621,1.308,0.621,2.23c0,0.508-0.1,0.961-0.296,1.355c-0.197,0.394-0.451,0.748-0.762,1.059
	c-0.31,0.31-0.655,0.58-1.03,0.805c-0.375,0.225-0.753,0.414-1.129,0.564c0.508,0.132,1.031,0.34,1.566,0.621
	c0.535,0.281,1.017,0.627,1.44,1.031c0.423,0.403,0.773,0.876,1.044,1.411C25.576,50.87,25.714,51.468,25.714,52.127z"/>
<path fill="#DA3E76" d="M74.353,28.753c-0.376-0.601-0.835-1.098-1.38-1.497c-0.544-0.394-1.154-0.591-1.83-0.591
	c-0.657,0-1.234,0.178-1.732,0.535c-0.498,0.357-0.915,0.812-1.253,1.356c-0.338,0.544-0.591,1.159-0.76,1.835
	c-0.285,1.143-0.279,2.411,0.047,3.571c0.326,1.16,0.973,2.213,1.966,2.925c0.497,0.356,1.075,0.535,1.732,0.535
	c0.676,0,1.286-0.202,1.83-0.605c0.545-0.409,1.005-0.911,1.38-1.512V28.753z M74.353,38.352v-1.605
	c-0.507,0.507-1.08,0.901-1.718,1.183c-0.638,0.281-1.305,0.422-1.999,0.422c-0.807,0-1.554-0.183-2.239-0.549
	c-1.418-0.757-2.424-1.985-2.944-3.4c-0.52-1.415-0.554-3.019-0.027-4.528c0.282-0.807,0.676-1.516,1.183-2.126
	c0.507-0.61,1.103-1.098,1.788-1.464c0.685-0.366,1.432-0.549,2.239-0.549c0.694,0,1.361,0.141,1.999,0.422
	c0.638,0.282,1.211,0.685,1.718,1.211v-4.788c0-0.375-0.122-0.694-0.366-0.957c-0.244-0.263-0.535-0.395-0.873-0.395h-1.154v-0.817
	h4.449v15.771c0,0.375,0.122,0.695,0.366,0.957c0.244,0.263,0.535,0.395,0.873,0.395h1.042v0.817H74.353z M45.477,27.129
	c-0.488-0.366-1.08-0.549-1.774-0.549c-0.676,0-1.258,0.183-1.746,0.549c-0.686,0.514-1.201,1.262-1.544,2.127
	c-0.343,0.865-0.516,1.847-0.516,2.828c0,0.982,0.171,1.964,0.514,2.829c0.343,0.865,0.858,1.614,1.546,2.129
	c0.487,0.365,1.071,0.549,1.746,0.549c0.695,0,1.286-0.183,1.774-0.549c0.695-0.521,1.216-1.271,1.563-2.135
	c0.347-0.864,0.521-1.843,0.521-2.822c0-0.979-0.174-1.957-0.521-2.821C46.693,28.4,46.172,27.65,45.477,27.129z M46.153,37.887
	c-0.769,0.309-1.586,0.465-2.45,0.465c-0.864,0-1.677-0.156-2.436-0.465c-1.259-0.512-2.213-1.361-2.855-2.38
	c-0.642-1.019-0.971-2.208-0.98-3.401c-0.009-1.193,0.302-2.389,0.941-3.422c0.639-1.033,1.606-1.903,2.908-2.442
	c0.77-0.319,1.577-0.479,2.422-0.479c0.864,0,1.681,0.16,2.45,0.479c1.259,0.521,2.217,1.378,2.863,2.403
	c0.646,1.025,0.981,2.217,0.994,3.411c0.013,1.193-0.295,2.387-0.935,3.415C48.437,36.498,47.466,37.359,46.153,37.887z
	 M36.966,27.96c0,0.563-0.174,1.056-0.521,1.478c-0.347,0.422-0.784,0.634-1.309,0.634c-0.676,0-1.192-0.319-1.549-0.958
	l0.479-0.563c0.113,0.038,0.207,0.056,0.282,0.056c0.207,0,0.372-0.086,0.493-0.253c0.12-0.168,0.183-0.357,0.183-0.563
	c0-0.263-0.11-0.466-0.324-0.605c-0.215-0.139-0.427-0.211-0.634-0.211c-0.488,0-0.931,0.123-1.323,0.366
	c-0.393,0.243-0.743,0.565-1.042,0.958c-0.299,0.393-0.532,0.837-0.69,1.324c-0.158,0.487-0.24,0.989-0.24,1.493v5.069
	c0,0.372,0.123,0.695,0.366,0.957c0.244,0.262,0.526,0.395,0.845,0.395h1.07v0.817h-6.674v-0.817h1.07
	c0.319,0,0.601-0.132,0.845-0.395c0.244-0.263,0.366-0.582,0.366-0.957v-7.857c0-0.376-0.119-0.697-0.352-0.958
	c-0.233-0.261-0.514-0.394-0.831-0.394h-1.154v-0.817h4.449v2.169c0.432-0.77,1.006-1.382,1.718-1.831
	c0.712-0.449,1.493-0.676,2.337-0.676c0.545,0,1.039,0.194,1.478,0.577C36.744,26.78,36.966,27.303,36.966,27.96z M60.748,38.352
	v-1.976c-0.395,0.583-0.941,1.059-1.637,1.425c-0.696,0.367-1.374,0.551-2.032,0.551c-0.734,0-1.435-0.109-2.103-0.325
	c-0.668-0.216-1.256-0.546-1.764-0.988c-0.508-0.442-0.913-0.988-1.214-1.637c-0.653-1.409-0.602-3.45,0.113-4.827
	c0.376-0.725,0.791-1.369,1.242-1.934c0.452-0.565,0.866-1.092,1.242-1.581c0.377-0.489,0.565-1.025,0.565-1.609
	c0-0.339-0.052-0.678-0.155-1.016c-0.104-0.339-0.297-0.593-0.579-0.762c0.075,0.151,0.113,0.33,0.113,0.537
	c0,0.301-0.103,0.555-0.31,0.762c-0.207,0.207-0.442,0.311-0.706,0.311c-0.282,0-0.527-0.108-0.734-0.325
	c-0.207-0.216-0.31-0.485-0.31-0.804c0-0.433,0.151-0.776,0.452-1.031c0.301-0.254,0.631-0.381,0.988-0.381
	c0.339,0,0.631,0.08,0.87,0.24c0.24,0.16,0.438,0.367,0.593,0.621c0.155,0.254,0.278,0.541,0.362,0.861
	c0.08,0.32,0.122,0.649,0.122,0.988c0,0.583-0.103,1.129-0.315,1.637c-0.212,0.508-0.438,1.04-0.687,1.595
	c-0.244,0.555-0.47,1.157-0.673,1.807c-0.382,1.226-0.39,2.674-0.104,3.923c0.132,0.574,0.339,1.082,0.617,1.525
	c0.282,0.442,0.64,0.8,1.068,1.072c0.433,0.273,0.96,0.409,1.576,0.409c0.654,0,1.266-0.188,1.825-0.565
	c0.565-0.376,1.007-0.894,1.322-1.552c0.038-0.038,0.09-0.146,0.155-0.325c0.066-0.179,0.099-0.287,0.099-0.325v-6.351
	c0-0.377-0.118-0.696-0.353-0.96c-0.235-0.263-0.522-0.395-0.861-0.395h-1.157v-0.819h4.488v10.049c0,0.376,0.118,0.696,0.353,0.96
	c0.235,0.263,0.513,0.395,0.833,0.395h1.1v0.819H60.748z M15.434,30.061c0.32,0.019,0.593,0.151,0.818,0.395
	c0.226,0.245,0.339,0.546,0.339,0.903c0,0.358-0.118,0.663-0.353,0.917c-0.235,0.254-0.513,0.381-0.833,0.381
	c-0.358,0-0.651-0.152-0.875-0.452c-0.224-0.299-0.338-0.64-0.338-1.016c0-0.47,0.091-0.858,0.268-1.157
	c0.177-0.3,0.411-0.543,0.691-0.72c0.669-0.422,1.853-0.762,2.63-0.982c0.657-0.186,1.285-0.438,1.877-0.748
	c0.592-0.309,1.102-0.693,1.524-1.143c0.422-0.451,0.635-1.016,0.635-1.693c0-0.64-0.151-1.186-0.452-1.637
	c-0.301-0.452-0.678-0.82-1.129-1.101c-0.451-0.281-0.951-0.489-1.496-0.621c-0.546-0.132-1.057-0.198-1.525-0.198h-2.658
	c-0.43,0-0.797,0.166-1.087,0.494c-0.29,0.327-0.438,0.723-0.438,1.171v12.985c0,0.467,0.147,0.872,0.438,1.2
	c0.29,0.328,0.654,0.494,1.087,0.494h1.73v0.819H7.437v-0.819h1.73c0.414,0,0.772-0.165,1.072-0.494
	c0.301-0.329,0.452-0.729,0.452-1.2V22.854c0-0.452-0.152-0.844-0.452-1.171c-0.299-0.328-0.662-0.494-1.072-0.494h-1.73V20.37
	h10.74c0.64,0,1.327,0.052,2.061,0.155c0.734,0.103,1.417,0.312,2.046,0.621c0.63,0.31,1.154,0.749,1.566,1.312
	c0.413,0.564,0.621,1.308,0.621,2.23c0,0.508-0.1,0.961-0.296,1.355c-1.015,2.035-2.881,2.532-4.745,2.863
	C17.955,29.169,16.481,29.327,15.434,30.061z"/>
<path fill-rule="evenodd" clip-rule="evenodd" d="M81.582,45.091c1.017,0,1.507-0.053,1.533-0.191
	c0.028-0.15-0.401-0.173-1.162-0.366c-0.258-0.338-0.292-1.249-0.228-2.841c0.022-0.538,0.151-1.094,0.377-1.502
	c0.339-0.613,0.525-0.876,1.559-2.558c0.044-0.071,0.039-0.098-0.006-0.098c-0.324,0-1.525,0-2.073,0c-0.548,0-1.75,0-2.074,0
	c-0.045,0-0.049,0.027-0.006,0.098c1.034,1.682,1.22,1.945,1.559,2.558c0.226,0.408,0.355,0.964,0.377,1.502
	c0.064,1.592,0.03,2.504-0.228,2.841c-0.761,0.193-1.189,0.216-1.161,0.366C80.074,45.038,80.565,45.091,81.582,45.091"/>
<path fill-rule="evenodd" clip-rule="evenodd" fill="#DA3E76" d="M82.143,40.116l0.008-0.015l0.001-0.001
	c0.289-0.516,0.498-0.827,1.323-2.165h-1.893h-1.893c0.825,1.338,1.034,1.649,1.323,2.165l0,0.001l0.01,0.018
	c0.093,0.161,0.268,0.29,0.56,0.29C81.874,40.409,82.057,40.265,82.143,40.116"/>
<path fill-rule="evenodd" clip-rule="evenodd" fill="#F05B89" d="M83.129,37.935h-1.547h-1.746c0.624,1.008,0.818,1.305,1.076,1.766
	l0,0.001l0.01,0.018c0.093,0.161,0.268,0.29,0.56,0.29c0.292,0,0.475-0.144,0.561-0.292l0.008-0.015l0.001-0.001
	C82.311,39.24,82.505,38.943,83.129,37.935"/>
<path fill-rule="evenodd" clip-rule="evenodd" fill="#DA3E76" d="M83.607,37.831c-0.022,0-0.044-0.002-0.065-0.006l0.029-0.29
	h-0.385c-0.009-0.019-0.016-0.039-0.023-0.059c-0.082-0.251,0.019-0.542,0.381-0.515c0.336-0.11,0.523,0.085,0.523,0.357
	C84.067,37.623,83.89,37.834,83.607,37.831"/>
<path fill-rule="evenodd" clip-rule="evenodd" fill="#DA3E76" d="M82.881,35.086c0.02-0.065,0.035-0.077,0.082-0.034
	c0.109,0.098,0.152,0.175,0.132,0.209c0.025,0.038,0.086,0.109,0.189,0.226c0.079,0.09,0.143,0.177,0.193,0.263
	c0.172,0.292,0.196,0.581,0.151,0.983c-0.013,0.119,0.003,0.186,0.042,0.2c-0.008,0.034-0.08,0.064-0.111,0.044
	c-0.028-0.018-0.013-0.113,0.013-0.292c0.056-0.391,0.007-0.656-0.14-0.902c-0.093-0.156-0.225-0.304-0.393-0.472
	c-0.037,0.013-0.063-0.008-0.077-0.064c-0.029-0.04-0.056-0.073-0.082-0.095C82.861,35.134,82.871,35.118,82.881,35.086"/>
<path fill-rule="evenodd" clip-rule="evenodd" d="M80.576,8.202c-0.341,0.972-0.262,2.126,0.443,2.855
	c-0.72-0.192-1.105-0.743-1.161-1.335C79.806,9.163,80.047,8.567,80.576,8.202 M82.017,6.068c-0.018,0.161-0.009,0.322,0.034,0.476
	c-0.183,0.066-0.354,0.161-0.512,0.279C81.588,6.506,81.759,6.265,82.017,6.068z M82.921,4.707
	c-0.401,0.248-0.724,0.664-0.853,1.107c-0.42,0.206-0.692,0.597-0.724,1.034c-0.209-0.254-0.278-0.561-0.219-0.862
	C81.244,5.38,81.878,4.797,82.921,4.707z M84.551,3.6c-0.171,0.276-0.308,0.597-0.405,0.962c-0.191-0.08-0.389-0.104-0.583-0.084
	c-0.04-0.006-0.081-0.012-0.125-0.017C83.532,3.984,83.86,3.669,84.551,3.6z M84.798,3.261c-0.058,0.068-0.112,0.139-0.165,0.214
	c-0.719-0.027-1.174,0.272-1.313,0.766c-0.038-0.305,0.02-0.533,0.157-0.694C83.713,3.273,84.182,3.195,84.798,3.261z
	 M95.495,42.765c2.898-1.891,6.68-4.537,11.289-8.015c0.394-0.297,0.652-0.396,0.853-0.244c0.159,0.121-0.065,0.54-0.129,1.387
	c-0.078,1.034,0.042,2.016,0.304,2.969c-1.579-0.059-3.852-0.102-5.902-0.228c-3.065,2.324-5.203,3.701-6.413,4.13L95.495,42.765z
	 M102.01,26.57c0.011,0.023,0.022,0.048,0.031,0.073c0.101,0.237,0.151,0.551,0.285,0.746c0.005,0.332-0.078,0.389-0.48,0.442
	c-0.146,0.019-0.302,0.071-0.462,0.046c-0.225-0.035-0.302-0.063-0.38-0.091c-0.022-0.007-0.043-0.014-0.065-0.022
	c-2.808-1.056-4.952-1.824-7.127-2.819l0.022,0.024c-0.131,1.257-0.767,1.987-1.907,2.19c-0.038,5.153-0.225,8.369-0.607,9.395
	c-0.106,0.451,0.158,0.672,0.558,0.506c5.903-2.447,11.552-4.661,15.745-6.234c0.845-0.317,1.483-0.142,1.798,0.716
	c3.109,8.476,5.2,15.124,5.835,19.973c0.304,2.319-0.125,4.241-0.746,5.683c-0.613,1.421-0.804,2.269-0.518,2.59
	c0.235,0.264,0.303,0.478,0.259,0.64c-0.15,0.558-0.789,0.514-1.874-0.259c-0.895-0.638-0.624-1.574,0.152-3.047
	c0.499-0.947,0.06-2.055-0.548-3.154c-0.331-0.597-0.196-1.144,0.335-1.447c0.554-0.317,0.899-0.727,0.884-1.356
	c-0.036-1.464-0.776-4.027-2.871-7.252c-0.152-0.233-0.301-0.466-0.446-0.699c-2.014,3.809-4.14,7.298-8.174,13.4
	c-0.296,0.448-0.92,1.237-1.64,2.511c-0.774,1.369-1.717,2.873-3.185,4.235c-0.63,0.584-0.946,1.321-0.379,2.127
	c0.128,0.183,0.065,0.653-0.382,0.653c-0.625,0-1.513-0.628-1.684-1.303c-0.094-0.37-0.065-0.847,0.411-1.427
	c1.212-1.48,1.5-2.563,1.006-3.68c-0.324-0.732-0.251-1.224,0.454-1.361c1.194-0.232,2.024-0.393,2.36-0.787
	c1.059-1.243,2.714-6.349,3.197-8.21c0.575-2.216,1.872-4.088,4.008-5.551c1.177-0.806,1.613-1.251,1.513-1.513
	c-0.104-0.27-0.919-0.248-2.715,0.076c-4.502,0.811-8.332,1.353-11.483,1.672c-2.347,1.056-4.703,1.312-7.031,0.641
	c-1.733-0.5-2.249-1.892-1.941-3.34c0.197-0.931,0.771-1.853,1.291-2.695c0.043-0.08,0.087-0.158,0.134-0.236
	c0.26-0.43,0.491-0.855,0.69-1.275l0.01-0.026c0.018-0.048,0.04-0.094,0.067-0.138c0.619-1.356,0.901-2.657,0.77-3.894
	c-0.274-2.581-1.135-5.153-2.79-7.471c-1.675-2.344-2.47-4.006-2.066-5.298c0.265-0.85,1.035-1.281,2.375-1.307
	c0.52-0.01,1.086-0.392,1.51-1.219c0.748-1.46,0.95-2.569,0.782-3.241c-0.16-0.55-1.19-0.568-2.328-1.385l0,0
	c0.225,0.976-0.45,2.086-1.684,2.259c-0.662,0.093-1.086-0.387-1.062-0.814c0.027-0.469,0.406-0.667,0.724-0.591
	c0.2,0.047,0.37,0.181,0.395,0.358c0.015,0.105-0.014,0.3-0.151,0.284c-0.158-0.018-0.085-0.188-0.18-0.25
	c-0.131-0.085-0.31-0.025-0.328,0.164c-0.03,0.309,0.281,0.509,0.633,0.288c0.413-0.26,0.297-0.683-0.125-1.027
	c-0.251-0.205-0.464-0.411-0.641-0.619c-0.077,0.242-0.199,0.539-0.424,1.147c-0.127,0.343-0.164,1.1,0.121,1.531
	c0.162,0.245,0.36,0.235,0.493,0c0.081-0.144,0.221-0.28,0.39-0.318c0.394-0.086,0.717,0.183,0.853,0.54
	c0.122,0.319,0.095,0.708-0.163,0.976c-0.297,0.309-0.769,0.222-0.923-0.04c-0.148-0.253,0.005-0.569,0.29-0.629
	c0.159-0.033,0.203,0.112,0.025,0.187c-0.243,0.102-0.149,0.388,0,0.415c0.346,0.062,0.693-0.233,0.539-0.799
	c-0.112-0.416-0.591-0.562-0.794-0.242c-0.139,0.221-0.16,0.338-0.384,0.403c-0.707,0.206-1.078-1.077-0.663-2.185
	c0.307-0.82,0.445-1.149,0.29-1.478c-0.016-0.029-0.032-0.058-0.048-0.087l0-0.001c-0.202-0.386-0.282-0.776-0.242-1.168
	c-1.306,0.019-1.987-0.823-2.044-1.735c-0.048-0.776,0.357-1.604,1.214-1.996l0.034-0.063c-0.932,0.329-1.41,0.938-1.495,1.682
	c-0.062,0.548,0.088,1.168,0.427,1.805c0.384,0.72,0.111,1.187-0.439,1.297c-0.123,0.025-0.216-0.096-0.053-0.182
	c0.308-0.163,0.503-0.487,0.308-0.949c-0.331-0.789-0.56-1.333-0.511-1.991c0.04-0.542,0.302-1.013,0.685-1.364
	c0.335-0.307,0.762-0.522,1.214-0.61c-0.375-0.401-0.467-0.874-0.351-1.321c0.204-0.793,1.058-1.506,2.13-1.597
	c0.16-0.014,0.306-0.018,0.438-0.015c-0.114-0.456-0.042-0.799,0.163-1.028c0.301-0.337,0.889-0.43,1.592-0.28
	c0.56-0.575,1.266-0.747,1.934-0.747c1.349,0.001,2.54,1.044,2.047,3.252c0.215,0.053,0.426,0.12,0.63,0.2
	c0.779,0.307,1.498,0.836,1.947,1.47c0.229,0.324,0.328,0.826,0.327,1.469c0,0.201,0.132,0.398,0.465,0.636
	c0.088,0.038,0.35-0.009,0.614-0.154c-0.029,0.09-0.186,0.274-0.353,0.353c0.189,0.182,0.586,0.386,1.172,0.654
	c0.041,0.019,0.045,0.075,0.031,0.13c-0.055,0.215-0.183,0.385-0.379,0.513c-0.055,0.367-0.046,0.514,0.327,0.794
	c0.009,0.212-0.062,0.421-0.213,0.627c0.204-0.032,0.342,0.041,0.363,0.228c0.02,0.182-0.071,0.25-0.192,0.301
	c-0.143,0.06-0.199,0.262-0.078,0.446c0.258,0.389,0.429,0.693,0.321,0.985c-0.117,0.321-1.283,0.375-3.434,0.187
	c-0.804,1.629-1.299,3.277-1.483,4.945c1.144,0,1.995,0.125,2.509,0.379h0l0.001,0.001c0.071,0.035,0.135,0.073,0.193,0.113
	c2.465,1.447,4.401,2.673,6.321,3.909c-0.659-1.348-1.593-3.551-3.12-6.982c-0.165-0.371-0.165-0.843,0.136-1.392
	c0.289-0.526,0.624-0.976,0.868-1.621c0.118-0.311,0.349-0.223,0.322,0.202c-0.012,0.189-0.08,0.469-0.207,0.87
	c-0.068,0.215,0.08,0.215,0.628,0.077c0.371-0.093,0.54-0.174,0.891-0.335c0.032-0.067,0.05-0.121,0.083-0.243
	c-0.054-0.112-0.094-0.207-0.121-0.284c-0.202-0.017-0.369-0.056-0.501-0.117c-0.517,0.028-0.583-0.314-0.449-0.301
	c0.217,0.022,0.265,0.025,0.464,0.046c0.279,0.046,0.354,0.059,0.354,0.059c-0.155-0.126-0.248-0.209-0.378-0.305
	c-0.661-0.146-0.98-0.632-0.717-0.548c0.624,0.201,0.816,0.254,0.816,0.254c0.177,0.09,0.257,0.136,0.389,0.221
	c-0.218-0.224-0.462-0.435-0.507-0.504c-0.441-0.183-0.741-0.819-0.479-0.652c0.288,0.183,0.592,0.369,0.592,0.369
	c0.281,0.23,0.64,0.58,0.64,0.58c-0.065-0.227-0.118-0.561-0.074-0.748c-0.134-0.669,0.111-1.15,0.151-0.946
	c0.094,0.473,0.126,0.712,0.126,0.712c0.108,0.603,0.162,0.904,0.162,0.904c0.026,0.074,0.067,0.17,0.123,0.287
	c0.092,0.315,0.11,0.545,0.28,1.285c0.083,0.333-0.372,0.673-0.587,0.715c-0.419,0.163-0.437,0.225-1.329,0.648
	c-0.481,0.229-0.694,0.466-0.691,0.709c0.002,0.167,0.463,0.93,1.514,2.228C100.774,23.224,101.086,24.394,102.01,26.57z"/>
<path fill-rule="evenodd" clip-rule="evenodd" fill="#F05B89" d="M84.166,13.257c0.45,0.777,1.659,1.262,2.875,1.804
	c1.268-1.972,2.67-4.17,4.169-6.618c0.592-0.966,0.371-2.308-1.057-3.278c0.228-1.52-0.556-2.289-2.344-2.158
	c-2.868,0.211-4.832,2.239-5.291,6.024c-0.166,1.374,0.214,2.46,0.984,3.085C83.763,12.327,83.878,12.761,84.166,13.257"/>
<path fill-rule="evenodd" clip-rule="evenodd" fill="#C81F66" d="M88.369,12.986c-1.144,0.102-1.904-0.092-2.344-0.519
	c-0.872-0.843-1.087-2.059,0-3.714c-0.755,0.371-1.399,0.371-1.933,0c-0.666-0.616-0.726-1.923-0.06-3.802
	c-0.78,0.99-1.303,2.351-1.512,4.079c-0.167,1.374,0.214,2.46,0.984,3.085c0.261,0.212,0.377,0.645,0.664,1.141
	c0.45,0.777,1.659,1.262,2.875,1.804C87.468,14.395,87.912,13.704,88.369,12.986"/>
<path fill-rule="evenodd" clip-rule="evenodd" fill="#DA3E76" d="M84.375,13.542c0.123,0.137,0.271,0.266,0.438,0.387
	c-0.226-2.601,1.135-4.891,3.617-6.587C85.238,8.298,83.728,10.514,84.375,13.542"/>
<path fill-rule="evenodd" clip-rule="evenodd" fill="#DA3E76" d="M90.153,5.164c0.01-0.064,0.017-0.126,0.023-0.187
	c-0.069-0.401-0.47-0.782-1.144-0.684c-1.378,0.201-2.211,1.368-2.592,3.05C87.513,5.255,88.751,4.529,90.153,5.164"/>
<path fill-rule="evenodd" clip-rule="evenodd" fill="#F05B89" d="M91.989,29.232c0.026,1.384,0.005,2.516-0.189,4.181
	c0,0-0.029,0.265,0.076,0.652c0.039,0.144-0.021,0.439-0.255,0.894c0.075-0.016,0.167,0.002,0.234,0.142
	c0.176,0.368-0.425,1.17-0.497,1.532c-0.111,0.56,0.663,0.548,1.204-0.283c0.383-0.588,0.499-0.921,0.826-1.002
	c0.234-0.058,0.285,0.132,0.682,0.499c0.344,0.318,0.748-0.091,1.12-0.717c0.345-0.582,0.962-0.655,1.619-0.114
	c0.829,4.265,0.068,7.758-2.008,9.412c-1.192,0.995-2.349,1.187-3.046,0.942c-0.415-0.207-0.697-0.309-0.846-0.486
	c-2.27,0.583-4.971,0.38-6.231-0.909c-1.371-1.586-0.547-3.406,0.645-5.188c-0.088-0.163,0.039-0.583,0.215-0.754
	c0.155-0.15,0.437-0.278,0.4-0.396c-0.057-0.182-0.043-0.29,0.095-0.385c0.259-0.177,0.251-0.217,0.255-0.263
	c0.015-0.179,0.066-0.369,0.124-0.396c0.182-0.085,0.123-0.397,0.259-0.478c0.259-0.689,0.352-1.081,0.462-2.303
	c0.076-0.841-0.246-1.806-0.563-2.453c-0.224-0.457,0.287-0.53,0.004-0.51c-0.313,0.022-0.19-0.194-0.152-0.579
	c0.038-0.39-0.048-0.462-0.071-0.48c-0.333-0.263-0.203-0.383-0.1-0.499c-0.258-0.903-0.448-1.04-0.674-1.52
	c-0.151-0.321-0.49-0.957-0.884-1.409c-0.79-0.907-0.894-1.214-0.65-1.227c4.431-0.244,7.188-0.58,8.781-1.582
	c0.192-0.121,0.475,0.04,0.549,0.646c0.024,0.199,0.46,0.191,0.46,0.769c0,1.529-1.155,2.173-1.431,2.187
	c0.017,0.234-0.323,0.435-0.272,0.601c0.045,0.146-0.005,0.272-0.134,0.44c0.105,0.109,0.13,0.332,0.032,0.497
	C92.02,28.882,92.12,29.01,91.989,29.232"/>
<path fill-rule="evenodd" clip-rule="evenodd" fill="#DA3E76" d="M94.896,35.566c0.099-0.124,0.198-0.272,0.294-0.434
	c0.128-0.216,0.294-0.362,0.485-0.432c-0.435,0.336-0.84,1.577-1.198,3.936C94.369,37.095,94.543,36.273,94.896,35.566
	L94.896,35.566z"/>
<path fill-rule="evenodd" clip-rule="evenodd" fill="#DA3E76" d="M92.308,36.669c0.087-0.088,0.173-0.194,0.254-0.318
	c0.383-0.588,0.499-0.921,0.826-1.002c-0.317,0.145-1.525,2.434-1.075,4.765c-0.642-1.083-0.556-2.821-0.006-3.445L92.308,36.669z"
	/>
<path fill-rule="evenodd" clip-rule="evenodd" fill="#C81F66" d="M90.909,44.885c-2.27,0.583-4.971,0.38-6.231-0.909
	c-1.371-1.586-0.547-3.406,0.645-5.188c-0.088-0.163,0.039-0.583,0.215-0.754c0.155-0.15,0.437-0.278,0.4-0.396
	c-0.057-0.182-0.043-0.29,0.095-0.385c0.259-0.177,0.251-0.217,0.255-0.263c0.015-0.179,0.066-0.369,0.124-0.396
	c0.182-0.085,0.123-0.397,0.259-0.478c0.259-0.689,0.352-1.081,0.462-2.303c0.076-0.841-0.246-1.806-0.563-2.453
	c-0.224-0.457,0.287-0.53,0.004-0.51c-0.313,0.022-0.19-0.194-0.152-0.579c0.038-0.39-0.048-0.462-0.071-0.48
	c-0.333-0.263-0.203-0.383-0.1-0.499c-0.258-0.903-0.448-1.04-0.674-1.52c-0.151-0.321-0.49-0.957-0.884-1.409
	c-0.79-0.907-0.894-1.214-0.65-1.227c1.426-0.078,2.678-0.166,3.775-0.283c1.42,3.31,1.758,7.182,0.206,11.935
	c-1.182,3.62-1.295,8.679,4.395,7.586C91.963,44.595,91.459,44.765,90.909,44.885"/>
<path fill-rule="evenodd" clip-rule="evenodd" fill="#DA3E76" d="M85.324,38.788c-0.088-0.163,0.039-0.583,0.215-0.754
	c0.018-0.017,0.038-0.034,0.059-0.051c-0.302,0.641,2.598,0.964,4.088-0.481C88.6,38.826,85.89,39.548,85.324,38.788"/>
<path fill-rule="evenodd" clip-rule="evenodd" fill="#DA3E76" d="M85.939,37.682c0.004-0.015,0.004-0.029,0-0.044
	c-0.054-0.173-0.045-0.279,0.075-0.371c0.032,0.247,0.477,0.371,1.335,0.37C86.749,37.818,86.279,37.833,85.939,37.682z"/>
<path fill-rule="evenodd" clip-rule="evenodd" d="M85.116,20.446c-1.091-1.492-3.648-0.205-1.92,2.057
	c2.465,3.226,4.565,6.291,7.411,8.867c0.467,0.423,0.867,0.274,1.28-0.159c4.818-5.046,8.05-7.807,9.29-8.726
	c0.132-0.098,0.188-0.039,0.339,0.038c0.527,0.27,1.042,0.267,1.756,0.034c0.224-0.073,0.414-0.158,0.602-0.137
	c0.361,0.04,0.605,0.062,1.139,0.011c0.113,0.043,0.307,0.099,0.583,0.168c0.073,0.067,0.221,0.18,0.468,0.282
	c0.35,0.144,0.403,0.032,0.247-0.078c-0.195-0.136-0.247-0.176-0.479-0.38c0,0-0.124-0.08-0.372-0.24c0.296,0,0.591,0,0.886,0
	c0.366,0.36,0.702,0.559,1.005,0.594c0.157,0.169,0.305,0.207,0.442,0.198c0.172-0.011,0.122-0.119-0.171-0.381
	c-0.587-0.524-0.71-0.711-1.065-1.087c-0.705-0.1-0.785-0.088-1.006-0.126c-0.016-0.126,0.036-0.156,0.169-0.177
	c0.384-0.062,0.728-0.188,1.133-0.442c0.906,0.01,1.583-0.038,1.884-0.263c0.102-0.076-0.015-0.123-0.221-0.13
	c-1.185-0.037-1.424-0.035-1.821,0c-0.592,0.174-1.119,0.357-1.729,0.48c-0.27,0.055-0.586,0.032-0.929,0.074
	c-0.553,0.068-0.902,0.12-1.791,0.157c-0.291,0.012-0.579-0.023-0.896,0.059c-0.216,0.056-0.398,0.22-0.577,0.345
	c-4.139,2.877-6.73,4.972-8.939,6.64c-0.24,0.181-0.521,0.228-0.724,0C89.793,26.642,87.794,24.105,85.116,20.446"/>
</svg>
